<?xml version="1.0" encoding="UTF-8"?>
<svg id="Layer_1" xmlns="http://www.w3.org/2000/svg" version="1.1" viewBox="0 0 889 181">
  <!-- Generator: Adobe Illustrator 30.0.0, SVG Export Plug-In . SVG Version: 2.1.1 Build 123)  -->
  <defs>
    <style>
      .st0 {
        fill: #fff;
      }
    </style>
  </defs>
  <g>
    <path class="st0" d="M214.49,137.36c-5.8,0-11.09-1.02-15.86-3.07-4.78-2.04-8.54-5.01-11.29-8.92-2.75-3.9-4.07-8.62-3.94-14.17l.12-.38h17.71c0,2.38.54,4.52,1.63,6.41,1.08,1.9,2.62,3.39,4.6,4.47,1.98,1.09,4.33,1.63,7.04,1.63,4.21,0,7.54-1.19,9.98-3.57s3.66-5.65,3.66-9.82-1.21-7.57-3.63-9.95-6.07-3.57-10.95-3.57h-9.89v-13.7h10.26c2.92,0,5.32-.51,7.2-1.53,1.88-1.02,3.27-2.47,4.19-4.35s1.38-4.09,1.38-6.63c0-3.84-1.04-6.88-3.13-9.14-2.09-2.25-5.11-3.38-9.07-3.38-2.38,0-4.48.47-6.32,1.41-1.84.94-3.26,2.26-4.29,3.97-1.02,1.71-1.53,3.69-1.53,5.94h-17.71l-.12-.38c-.12-4.84,1.06-9.14,3.57-12.92,2.5-3.77,6.04-6.74,10.61-8.88,4.57-2.15,9.79-3.22,15.67-3.22,9.22,0,16.62,2.24,22.21,6.73,5.59,4.48,8.38,10.84,8.38,19.05,0,4.25-1.18,8.09-3.54,11.51-2.36,3.42-5.87,6.22-10.54,8.38,5.05,1.79,8.89,4.55,11.54,8.26s3.97,8.03,3.97,12.95c0,5.55-1.38,10.32-4.13,14.33-2.75,4-6.53,7.09-11.32,9.26-4.8,2.17-10.28,3.25-16.46,3.25v.03Z"/>
    <path class="st0" d="M252.91,136.05v-10.95l9.82-2.06V58.09l-9.82-2.13v-11.01h39.98c8.13,0,15.31,1.91,21.52,5.73,6.22,3.82,11.06,9.09,14.55,15.83,3.48,6.74,5.22,14.46,5.22,23.18v1.69c0,8.63-1.72,16.32-5.16,23.06s-8.25,12.02-14.42,15.86-13.33,5.76-21.46,5.76h-40.23,0ZM281,122.1h11.2c5.05,0,9.32-1.32,12.83-3.97,3.5-2.65,6.18-6.29,8.04-10.92,1.86-4.63,2.78-9.91,2.78-15.83v-1.75c0-6.01-.93-11.31-2.78-15.92-1.86-4.61-4.54-8.22-8.04-10.82-3.5-2.61-7.78-3.91-12.83-3.91h-11.2v63.13h0Z"/>
    <path class="st0" d="M373.54,136.05v-10.95l9.7-1.88V57.84l-9.7-1.88v-11.01h38.98v11.01l-11.01,1.88v64.2h25.72l.88-13.33h13.95v27.34h-68.52Z"/>
    <path class="st0" d="M488.79,137.36c-6.13,0-11.72-1.15-16.77-3.44-5.05-2.29-9.4-5.52-13.05-9.67-3.65-4.15-6.45-9.03-8.42-14.64-1.96-5.61-2.94-11.75-2.94-18.43v-1.38c0-6.63.98-12.75,2.94-18.36s4.76-10.5,8.38-14.67c3.63-4.17,7.97-7.4,13.01-9.7,5.05-2.29,10.64-3.44,16.77-3.44s11.8,1.15,16.89,3.44c5.09,2.29,9.47,5.53,13.14,9.7,3.67,4.17,6.5,9.06,8.48,14.67s2.97,11.73,2.97,18.36v1.38c0,6.67-.99,12.82-2.97,18.43s-4.81,10.49-8.48,14.64c-3.67,4.15-8.04,7.37-13.11,9.67-5.07,2.29-10.69,3.44-16.86,3.44h.02ZM488.79,123.16c5.17,0,9.47-1.33,12.89-4s6-6.4,7.73-11.2c1.73-4.8,2.6-10.39,2.6-16.77v-1.5c0-6.3-.88-11.84-2.63-16.61-1.75-4.78-4.35-8.5-7.79-11.17s-7.73-4-12.86-4-9.32,1.33-12.7,3.97c-3.38,2.65-5.91,6.35-7.6,11.11-1.69,4.75-2.53,10.32-2.53,16.71v1.5c0,6.38.86,11.97,2.57,16.77,1.71,4.8,4.25,8.53,7.63,11.2s7.61,4,12.7,4h-.01Z"/>
    <path class="st0" d="M582.21,137.36c-8.84,0-16.54-1.85-23.09-5.54-6.55-3.69-11.61-8.93-15.17-15.7-3.57-6.78-5.35-14.8-5.35-24.06v-3.07c0-8.84,1.72-16.67,5.16-23.49s8.35-12.17,14.73-16.05,13.97-5.82,22.77-5.82c6.17,0,11.96.88,17.36,2.63,5.4,1.75,10.23,4.42,14.48,8.01v22.02h-13.58l-1.88-13.83c-1.38-1-2.88-1.86-4.5-2.57-1.63-.71-3.39-1.25-5.29-1.63-1.9-.38-3.95-.56-6.16-.56-5.17,0-9.62,1.27-13.33,3.82-3.71,2.54-6.56,6.14-8.54,10.79s-2.97,10.17-2.97,16.55v3.19c0,6.38,1.04,11.91,3.13,16.58s5.05,8.29,8.88,10.86c3.84,2.56,8.38,3.85,13.64,3.85,2.63,0,5.27-.3,7.91-.91,2.65-.6,5.06-1.39,7.23-2.35l1.88-12.83h13.58v21.77c-3.55,2.34-7.97,4.31-13.26,5.91-5.3,1.6-11.18,2.41-17.65,2.41l.02.02Z"/>
    <path class="st0" d="M621.5,136.05v-10.95l9.7-1.88V57.84l-9.7-1.88v-11.01h37.23v11.01l-9.26,1.88v65.38l9.26,1.88v10.95h-37.23ZM645.65,113.71l-9.45-10.82,44.61-45.99.13-.19-9.01-.75v-11.01h37.48v11.01l-8.57,1.69-55.19,56.06h0ZM673.93,136.05v-10.95l8.51-.75h.06l-23.15-31.91,12.08-12.08,32.29,43.17,8.95,1.56v10.95h-38.74Z"/>
    <path class="st0" d="M718.17,136.05v-10.95l9.7-1.88V57.84l-9.7-1.88v-11.01h70.7v24.59h-14.02l-.81-10.51h-27.91v22.9h30.85v14.08h-30.85v26.03h29.41l.81-10.89h13.89v24.9h-72.08.01Z"/>
    <path class="st0" d="M800.01,136.05v-10.95l9.7-1.88V57.84l-9.7-1.88v-11.01h43.17c7.01,0,13.01,1.09,18.02,3.25,5.01,2.17,8.85,5.28,11.54,9.32,2.69,4.05,4.04,8.91,4.04,14.58,0,5.34-1.34,10.12-4,14.33-2.67,4.21-6.38,7.53-11.14,9.95s-10.24,3.65-16.46,3.69h-17.21v23.15l9.76,1.88v10.95h-37.73.01ZM827.98,86h14.89c5.26,0,9.19-1.12,11.79-3.35,2.61-2.23,3.91-5.47,3.91-9.73s-1.29-7.58-3.88-10.1c-2.59-2.52-6.42-3.79-11.51-3.79h-15.2v26.97h0ZM858.64,136.05l-15.33-39.36,16.46-4.07,13.26,30.66,7.76,1.81v10.95h-22.15Z"/>
  </g>
  <g>
    <g>
      <polygon class="st0" points="98.91 91.76 88.44 123.17 125.85 117.85 120.62 133.47 60.12 142.22 75.99 95.02 98.91 91.76"/>
      <path class="st0" d="M69.11,93.44c.02.05.22.04.23.15l-15.58,46.35-.34.25-6.17-11.41c2.56-7.05,4.66-14.25,7.15-21.33.45-1.29.9-2.22,1.2-3.05.23-.63,1-2.98.82-3.5-.38-1.09-1.84-3.13-2.46-4.25-.13-.24-1.37-2.96-1.57-2.81l-7.55,22.14c-.48-.51-.57-1.2-.88-1.78-1.29-2.36-3.01-4.85-4.14-7.19-.27-.56-.57-1.12-.64-1.76l7.3-22.03c-.93-2.31-2.36-4.48-3.52-6.71l-9.1,27.46-.49-.28-5.69-10.46c5.01-15.43,10.27-30.83,15.36-46.24.5-.11,1.01.93,1.25,1.32,1.11,1.77,1.95,3.79,2.97,5.61,6.59,11.69,13.04,23.14,19.4,34.83.83,1.53,1.74,3.11,2.44,4.7h0Z"/>
      <path class="st0" d="M110.91,47.23c8.96,6.37,17.77,20.2,9.08,30.32-4.62,5.38-11.01,7.01-17.6,8.14-9.08,1.56-18.26,2.55-27.38,3.86-.59-.02-.55-.75-.78-1.09-1.46-2.11-2.5-4.38-3.78-6.68-3.7-6.66-7.49-13.24-11.17-19.9-3.16-5.73-6.28-11.55-9.39-17.38-.17-.33-1.22-1.31-.34-1.54l27.72-3.84c12.49-1.2,23.34.79,33.65,8.12h-.01ZM94.94,55.48c-2.96-2.8-7.04-5.11-11.17-5.4-2.67-.19-5.34.57-7.98.86l13.68,24.69c3.14-.36,7.4-.41,9.77-2.78,4.83-4.83-.33-13.61-4.3-17.37Z"/>
    </g>
    <path class="st0" d="M78.92,161.21c-38.99,0-70.71-31.72-70.71-70.71S39.93,19.79,78.92,19.79s70.71,31.72,70.71,70.71-31.72,70.71-70.71,70.71h0ZM78.92,27.36c-34.81,0-63.14,28.32-63.14,63.14s28.32,63.14,63.14,63.14,63.14-28.32,63.14-63.14-28.32-63.14-63.14-63.14Z"/>
  </g>
</svg>