<?xml version="1.0" encoding="UTF-8"?>
<svg id="Layer_1" xmlns="http://www.w3.org/2000/svg" version="1.1" viewBox="0 0 676.65 119.71">
  <!-- Generator: Adobe Illustrator 29.8.1, SVG Export Plug-In . SVG Version: 2.1.1 Build 2)  -->
  <defs>
    <style>
      .st0 {
        fill: #fff;
      }
    </style>
  </defs>
  <path class="st0" d="M53.34,36.27l23.59,75.05h8.8l2.56-11.69-17.8-56.63C61.81,15.36,45.72,7.32,30.95,7.32S5.32,14.4,5.32,23.4c0,5.67,3.87,9.54,8.77,9.54s8.92-3.87,8.92-8.78c0-2.26-.77-4.08-2.14-6.12-1.61-2.46-.43-6.43,7.39-6.43,14.17,0,20.8,10.83,25.08,24.66h0ZM82.3,111.32h5.36l21.44-56.29h-5.36l-21.44,56.29ZM90.57,41.32l26.04,70h8.81l2.57-11.69-22.29-58.32c-1.08-2.79.08-3.98,1.91-3.98.23,0,.54-.11.54-.53s-.31-.54-.54-.54h-22.74c-.19,0-.54.12-.54.54s.34.53.54.53c1.83,0,4.74,1.19,5.71,3.98h0ZM143.94,41.4l-21.97,69.92h5.36l21.98-69.92c.88-2.87,3.64-4.06,5.48-4.06.22,0,.53-.11.53-.53s-.31-.54-.53-.54h-13.1c-.19,0-.53.12-.53.54s.34.53.53.53c1.84,0,3.14,1.19,2.26,4.06h0ZM215.25,111.32h3.98c.19,0,.53-.12.53-.54s-.34-.53-.53-.53c-1.84,0-3.87-1.29-3.87-4.28v-31.41c0-10.41-7.08-17.91-17.91-17.91s-18,7.08-18,17.91l3.75-1.83c0-5.14,4.06-10.3,9.34-10.3,5.78,0,7.82,5.36,7.82,10.3v33.23c0,2.99-2.03,4.28-3.86,4.28-.2,0-.53.11-.53.53s.34.54.53.54h18.77ZM183.08,111.32h3.98c.19,0,.53-.12.53-.54s-.34-.53-.53-.53c-1.84,0-3.87-1.29-3.87-4.28V35.73c0-.65-.65-.96-1.18-.65-3.75,2.79-9,4.4-13.71,4.4h-3.98c-.2,0-.54.12-.54.53s.34.54.54.54c1.83,0,3.86,1.29,3.86,4.28v61.12c0,2.99-2.03,4.28-3.86,4.28-.2,0-.54.11-.54.53s.34.54.54.54h18.76ZM248.05,111.32h3.98c.2,0,.54-.12.54-.54s-.34-.53-.54-.53c-1.83,0-3.86-1.29-3.86-4.28v-48.79c0-.65-.65-.96-1.18-.65-3.75,2.79-9,4.41-13.71,4.41h-3.99c-.22,0-.53.11-.53.54s.31.53.53.53c1.84,0,3.87,1.3,3.87,4.29v39.67c0,2.99-2.03,4.28-3.87,4.28-.22,0-.53.11-.53.53s.31.54.53.54h18.76ZM240.66,51.27c4.29,0,7.5-2.99,7.5-7.5s-3.02-7.5-7.5-7.5-7.5,2.99-7.5,7.5,2.99,7.5,7.5,7.5h0ZM299.63,67.58l-22.09,21.64,1.18,4.52,23.25-22.94c6.01-5.9,13.21-12.02,15.02-12.02.22,0,.53-.11.53-.54s-.31-.53-.53-.53h-19.38c-.23,0-.53.11-.53.53s.31.54.53.54c4.6,0,5.55,5.36,2.03,8.8h0ZM282.59,111.32h3.96c.22,0,.53-.12.53-.54s-.31-.53-.53-.53c-1.81,0-3.87-1.29-3.87-4.28V35.73c0-.65-.62-.96-1.16-.65-3.75,2.79-9.03,4.4-13.74,4.4h-3.96c-.22,0-.53.12-.53.53s.31.54.53.54c1.81,0,3.84,1.29,3.84,4.28v61.12c0,2.99-2.03,4.28-3.84,4.28-.22,0-.53.11-.53.53s.31.54.53.54h18.76ZM301.97,111.32h17.81c.22,0,.54-.12.54-.54s-.31-.53-.54-.53c-1.18,0-2.68-1.19-3.95-3.75l-17.07-34.2-10.39,10.61,13.6,28.42ZM420.9,111.32h3.95c.23,0,.53-.12.53-.54s-.31-.53-.53-.53c-1.81,0-4.6-1.19-5.55-3.98l-24.04-70h-8.77l-2.57,11.68,20.37,58.32c.96,2.79-.34,3.98-2.14,3.98-.23,0-.54.11-.54.53s.31.54.54.54h18.76ZM370.05,90.94h35.61v-4.28h-35.61v4.28ZM354.96,111.32h16.93c.22,0,.53-.12.53-.54s-.31-.53-.53-.53c-2.46,0-5.48-5.58-4.29-9.11l22.29-64.86h-5.36l-21.76,63.56c-1.72,5.16-6,10.41-7.81,10.41-.23,0-.54.11-.54.53s.31.54.54.54h0ZM454.87,111.32h3.98c.2,0,.53-.12.53-.54s-.34-.53-.53-.53c-1.84,0-3.86-1.29-3.86-4.28V41.63c0-2.99,2.03-4.29,3.86-4.29.2,0,.53-.11.53-.53s-.34-.54-.53-.54h-22.74c-.2,0-.54.12-.54.54s.34.53.54.53c1.83,0,3.86,1.3,3.86,4.29v64.33c0,2.99-2.03,4.28-3.86,4.28-.2,0-.54.11-.54.53s.34.54.54.54h18.76ZM516.32,111.32V41.63c0-2.99,2.03-4.29,3.83-4.29.23,0,.54-.11.54-.53s-.31-.54-.54-.54h-22.71c-.22,0-.54.12-.54.54s.32.53.54.53c1.81,0,3.86,1.3,3.86,4.29v64.33c0,2.99-2.06,4.28-3.86,4.28-.22,0-.54.11-.54.53s.32.54.54.54h18.88ZM512.56,111.32h35.58v-8.16c0-.2-.11-.54-.54-.54s-.53.34-.53.54c0,1.83-1.27,3.86-4.28,3.86h-30.22v4.29ZM588.24,73.26v25.08c0,7.72,5.16,14.05,12.67,14.05,4.94,0,8.24-2.46,10.61-6.43l-1.61-2.15c-.96.96-2.03,1.38-3.11,1.38-1.94,0-3.56-1.61-3.56-5.25v-23.05c0-15.12-12.87-20.14-23.78-20.14-12.67,0-18.88,6.01-18.88,13.6,0,5.7,3.87,9.56,8.8,9.56s8.89-3.86,8.89-8.8c0-2.26-.77-4.06-2.14-6.12-.76-1.5-.23-3.95,3.63-3.95,5.36,0,8.47,5.79,8.47,12.22h0ZM573.88,112.39c9.53,0,15.43-5.14,21.44-13.09l-7.08-3.53c0,6.85-2.68,10.19-7.7,10.19-4.63,0-6.77-4.29-6.77-10.19,0-6.32,2.06-10.95,8.49-11.9l9-1.27v-4.09l-10.3,1.29c-15.32,1.61-22.74,7.62-22.74,17.69s6.66,14.9,15.67,14.9h0ZM621.81,44.84v66.48c0,.53.97.76,1.5.53l13.52-7.2V35.73c0-.65-.65-.96-1.18-.65-3.76,2.79-9,4.4-13.72,4.4h-3.98c-.22,0-.54.12-.54.53s.32.54.54.54c1.83,0,3.86,1.29,3.86,4.28h0ZM646.58,112.39c15.97,0,24.75-10.49,24.75-27.99s-7.05-27.76-20.79-27.76c-12.53,0-20.48,13.29-22.18,47.6,1.7,2.56,9.42,8.15,18.23,8.15h0ZM646.58,106.72c-5.81,0-9.76-7.19-9.76-22.31s3.75-22.18,9.76-22.18c6.43,0,9.2,7.17,9.2,22.18s-2.35,22.31-9.2,22.31h0ZM646.58,106.72"/>
</svg>