<?xml version="1.0" encoding="UTF-8"?>
<svg id="Layer_1" xmlns="http://www.w3.org/2000/svg" version="1.1" viewBox="0 0 493.31 75.6">
  <!-- Generator: Adobe Illustrator 29.8.1, SVG Export Plug-In . SVG Version: 2.1.1 Build 2)  -->
  <defs>
    <style>
      .st0 {
        fill: #fff;
      }
    </style>
  </defs>
  <path class="st0" d="M32.7,25.49l12.32,39.18h4.6l1.34-6.1-9.3-29.55c-4.53-14.45-12.93-18.64-20.64-18.64s-13.38,3.7-13.38,8.4c0,2.96,2.01,4.98,4.59,4.98s4.64-2.02,4.64-4.58c0-1.18-.4-2.13-1.12-3.2-.83-1.28-.22-3.36,3.87-3.36,7.38,0,10.85,5.65,13.09,12.87h0ZM47.81,64.67h2.8l11.19-29.38h-2.8l-11.19,29.38ZM52.12,28.12l13.59,36.55h4.61l1.34-6.1-11.64-30.44c-.56-1.46.05-2.08,1.01-2.08.11,0,.29-.05.29-.27,0-.23-.18-.29-.29-.29h-11.86c-.11,0-.29.05-.29.29,0,.22.18.27.29.27.95,0,2.46.61,2.96,2.08h0ZM80,28.18l-11.48,36.49h2.8l11.48-36.49c.45-1.52,1.89-2.13,2.85-2.13.11,0,.27-.05.27-.27,0-.23-.16-.29-.27-.29h-6.83c-.11,0-.29.05-.29.29,0,.22.18.27.29.27.94,0,1.62.61,1.17,2.13h0ZM117.21,64.67h2.08c.11,0,.29-.05.29-.27,0-.24-.18-.29-.29-.29-.95,0-2.02-.67-2.02-2.24v-16.39c0-5.43-3.68-9.35-9.33-9.35s-9.4,3.7-9.4,9.35l1.95-.96c0-2.69,2.13-5.38,4.88-5.38,3.03,0,4.08,2.8,4.08,5.38v17.35c0,1.57-1.05,2.24-2.01,2.24-.11,0-.29.05-.29.29,0,.22.18.27.29.27h9.78ZM100.42,64.67h2.08c.11,0,.29-.05.29-.27,0-.24-.18-.29-.29-.29-.95,0-2.02-.67-2.02-2.24V25.2c0-.33-.32-.49-.61-.33-1.95,1.46-4.7,2.3-7.15,2.3h-2.08c-.11,0-.29.05-.29.29,0,.22.18.27.29.27.95,0,2,.67,2,2.24v31.9c0,1.57-1.05,2.24-2,2.24-.11,0-.29.05-.29.29,0,.22.18.27.29.27h9.79ZM134.35,64.67h2.08c.11,0,.27-.05.27-.27,0-.24-.16-.29-.27-.29-.96,0-2.02-.67-2.02-2.24v-25.46c0-.34-.34-.51-.62-.34-1.97,1.44-4.69,2.3-7.17,2.3h-2.07c-.11,0-.27.05-.27.29,0,.22.16.27.27.27.95,0,2.02.67,2.02,2.24v20.71c0,1.57-1.07,2.24-2.02,2.24-.11,0-.27.05-.27.29,0,.22.16.27.27.27h9.8ZM130.48,33.32c2.24,0,3.92-1.57,3.92-3.92s-1.57-3.92-3.92-3.92-3.92,1.57-3.92,3.92,1.57,3.92,3.92,3.92h0ZM161.27,41.83l-11.54,11.3.64,2.36,12.13-11.99c3.14-3.07,6.9-6.27,7.84-6.27.11,0,.29-.05.29-.29,0-.21-.18-.27-.29-.27h-10.13c-.11,0-.27.05-.27.27,0,.24.16.29.27.29,2.4,0,2.91,2.8,1.07,4.59h0ZM152.36,64.67h2.08c.11,0,.27-.05.27-.27,0-.24-.17-.29-.27-.29-.95,0-2.02-.67-2.02-2.24V25.2c0-.33-.32-.49-.61-.33-1.95,1.46-4.69,2.3-7.17,2.3h-2.05c-.13,0-.29.05-.29.29,0,.22.16.27.29.27.94,0,2,.67,2,2.24v31.9c0,1.57-1.06,2.24-2,2.24-.13,0-.29.05-.29.29,0,.22.16.27.29.27h9.78ZM162.49,64.67h9.3c.11,0,.27-.05.27-.27,0-.24-.16-.29-.27-.29-.61,0-1.41-.62-2.08-1.97l-8.9-17.84-5.41,5.54,7.09,14.82ZM224.57,64.67h2.08c.11,0,.27-.05.27-.27,0-.24-.16-.29-.27-.29-.96,0-2.4-.62-2.91-2.08l-12.55-36.54h-4.59l-1.34,6.1,10.63,30.44c.51,1.46-.18,2.08-1.12,2.08-.13,0-.29.05-.29.29,0,.22.16.27.29.27h9.78ZM198.04,54.03h18.58v-2.24h-18.58v2.24ZM190.15,64.67h8.83c.13,0,.29-.05.29-.27,0-.24-.16-.29-.29-.29-1.28,0-2.85-2.91-2.24-4.75l11.64-33.87h-2.8l-11.36,33.18c-.9,2.69-3.14,5.44-4.08,5.44-.13,0-.29.05-.29.29,0,.22.16.27.29.27h0ZM242.31,64.67h2.08c.11,0,.27-.05.27-.27,0-.24-.16-.29-.27-.29-.96,0-2.02-.67-2.02-2.24V28.29c0-1.57,1.06-2.24,2.02-2.24.11,0,.27-.05.27-.27,0-.23-.16-.29-.27-.29h-11.88c-.11,0-.27.05-.27.29,0,.22.17.27.27.27.95,0,2.02.67,2.02,2.24v33.58c0,1.57-1.07,2.24-2.02,2.24-.11,0-.27.05-.27.29,0,.22.17.27.27.27h9.8ZM277.46,65.23c7.39,0,13.81-4.26,13.81-10.74,0-5.49-2.62-8.18-9.39-11.75-6.55-3.47-8.84-5.78-8.84-9.01,0-3.42,2.24-6.55,6.04-6.55,4.08,0,4.69,2.08,3.85,3.36-.72,1.06-1.12,2.02-1.12,3.2,0,2.56,2.08,4.58,4.66,4.58s4.59-2.02,4.59-4.98c0-4.69-3.92-8.39-11.81-8.39-6.1,0-13.33,2.75-13.33,11.76,0,5.99,5.09,9.85,10.42,12.58,6.03,3.14,8,5.22,8,8.18,0,3.71-3.52,5.55-7.57,5.55-3.68,0-7.33-1.89-9.78-5.55l-1.84,1.68c3.01,3.97,6.82,6.1,12.31,6.1h0ZM312.73,65.23c8.27,0,13.76-5.49,13.76-14.61s-5.09-14.5-13.76-14.5-13.88,5.31-13.88,14.5,5.09,14.61,13.88,14.61h0ZM312.73,62.99c-3.92,0-6.05-3.97-6.05-12.37s1.95-12.32,6.05-12.32c3.87,0,5.92,4.03,5.92,12.32s-1.95,12.37-5.92,12.37h0ZM342.11,64.67h2.07c.11,0,.27-.05.27-.27,0-.24-.16-.29-.27-.29-.96,0-2.02-.67-2.02-2.24V25.2c0-.33-.33-.49-.62-.33-1.95,1.46-4.69,2.3-7.17,2.3h-2.06c-.11,0-.29.05-.29.29,0,.22.18.27.29.27.94,0,2.01.67,2.01,2.24v31.9c0,1.57-1.07,2.24-2.01,2.24-.11,0-.29.05-.29.29,0,.22.18.27.29.27h9.79ZM360.25,65.23c5.04,0,9.39-4.37,9.39-11.03l-1.95.96c0,3.52-2.08,7.06-5.2,7.06-2.24,0-3.2-1.75-3.2-5.38v-20.5c0-.32-.34-.48-.61-.27-2.08,1.44-4.64,2.3-7.17,2.3h-2.08c-.11,0-.27.05-.27.29,0,.22.16.27.27.27.96,0,2.02.67,2.02,2.24v16.28c0,4.93,3.01,7.78,8.8,7.78h0ZM367.68,41.16v16.74c0,4.02,3.3,7.33,7.33,7.33,2.24,0,4.26-1.01,5.6-2.63l-1.07-.94c-.56.61-1.23.94-1.89.94-1.17,0-2.13-.83-2.13-2.75v-23.51c0-.32-.34-.48-.61-.27-2.18,1.63-4.71,2.3-7.17,2.3h-2.08c-.11,0-.27.05-.27.29,0,.22.16.27.27.27.96,0,2.02.67,2.02,2.24h0ZM394.5,65.23c2.24,0,4.24-1.01,5.6-2.63l-1.07-.94c-.56.61-1.23.94-1.89.94-1.19,0-2.13-.83-2.13-2.75v-30.71c0-.34-.34-.51-.61-.34-1.97,1.44-4.71,2.29-7.17,2.29h-2.08c-.11,0-.27.05-.27.27,0,.23.16.29.27.29.96,0,2.02.67,2.02,2.24v24.01c0,4.02,3.3,7.33,7.33,7.33h0ZM383.63,38.92h16.47v-2.24h-16.47v2.24ZM415.26,64.67h2.08c.11,0,.27-.05.27-.27,0-.24-.16-.29-.27-.29-.95,0-2.02-.67-2.02-2.24v-25.46c0-.34-.34-.51-.61-.34-1.97,1.44-4.69,2.3-7.17,2.3h-2.08c-.11,0-.27.05-.27.29,0,.22.16.27.27.27.96,0,2.02.67,2.02,2.24v20.71c0,1.57-1.06,2.24-2.02,2.24-.11,0-.27.05-.27.29,0,.22.16.27.27.27h9.8ZM411.4,33.32c2.24,0,3.92-1.57,3.92-3.92s-1.57-3.92-3.92-3.92-3.92,1.57-3.92,3.92,1.57,3.92,3.92,3.92h0ZM437.03,65.23c8.29,0,13.76-5.49,13.76-14.61s-5.09-14.5-13.76-14.5-13.88,5.31-13.88,14.5,5.09,14.61,13.88,14.61h0ZM437.03,62.99c-3.92,0-6.04-3.97-6.04-12.37s1.97-12.32,6.04-12.32c3.87,0,5.92,4.03,5.92,12.32s-1.95,12.37-5.92,12.37h0ZM483.33,64.67h2.06c.11,0,.29-.05.29-.27,0-.24-.18-.29-.29-.29-.94,0-2.01-.67-2.01-2.24v-17.35c0-5.94-3.59-8.4-9.13-8.4s-9.73,3.7-9.73,9.35l1.95-.96c0-2.69,2.02-5.38,4.93-5.38s4.15,2.18,4.15,5.94v16.79c0,1.57-1.06,2.24-2.02,2.24-.11,0-.27.05-.27.29,0,.22.16.27.27.27h9.8ZM466.41,64.67h2.08c.11,0,.29-.05.29-.27,0-.24-.18-.29-.29-.29-.95,0-2.02-.67-2.02-2.24v-25.46c0-.34-.33-.51-.62-.34-1.95,1.44-4.69,2.3-7.15,2.3h-2.08c-.11,0-.29.05-.29.29,0,.22.18.27.29.27.95,0,2,.67,2,2.24v20.71c0,1.57-1.05,2.24-2,2.24-.11,0-.29.05-.29.29,0,.22.18.27.29.27h9.79ZM466.41,64.67"/>
</svg>